# xmcd CD database file
#
# Track frame offsets:
#	150
#	21149
#	42470
#	63522
#	84471
#	105212
#	126466
#	144370
#	163751
#	181006
#	201117
#
# Disc length: 2961 seconds
#
# Revision: 0
# Processed by: cddbd v1.5.2PL0 Copyright (c) Steve Scherf et al.
# Submitted via: CDex 1.50
#
DISCID=8f0b8f0b
DTITLE=Checho Acosta - Solo para ti
DYEAR=1900
DGENRE=Salsa
TTITLE0=01 - amor y secreto 
TTITLE1=02 - tu y  yo 
TTITLE2=03 - como olvidar el amor 
TTITLE3=04 - no estamos bien 
TTITLE4=05 - que viva el amor 
TTITLE5=06 - me estas haciendo falta
TTITLE6=07 - quiero volver
TTITLE7=08 - por ti 
TTITLE8=09 - traicionera
TTITLE9=10 - no se por que 
TTITLE10=11 - si estuvieras aqui
EXTD=
EXTT0=
EXTT1=
EXTT2=
EXTT3=
EXTT4=
EXTT5=
EXTT6=
EXTT7=
EXTT8=
EXTT9=
EXTT10=
PLAYORDER=
